<svg xmlns="http://www.w3.org/2000/svg" width="111.913" height="26.494" viewBox="0 0 111.913 26.494">
  <path id="tape" d="M337.07,533.01s2.01,1.929,1.656,3.534-1.723,1.946-1.656,2.918,1.718,1.651,1.656,2.571-1.5,2.024-1.656,2.568a7.1,7.1,0,0,0,0,3c.265.984,2.6,3.162,1.656,3.872s-1.654,1.262-1.656,2.435,1.47,3.034,1.122,3.849a8.292,8.292,0,0,1-1.122,1.722l110.9-.226s-.828-1.361-.648-1.827a8.338,8.338,0,0,1,1.137-1.5s-1.294-.641-1.137-1.2a14.368,14.368,0,0,1,1.5-2.313,16.054,16.054,0,0,1-1.185-3.077,9.444,9.444,0,0,1,.825-2.4l-1.676-4.2s1.48-.335,1.676-.736.261-2.686-.489-2.946.849-1.438.849-1.438l-1.185-1.719.336-2.9Z" transform="translate(-336.909 -532.987)" fill="#e5cfbc"/>
</svg>
